<svg id="Layer_1" enable-background="new 0 0 512 512" height="512" viewBox="0 0 512 512" width="512" xmlns="http://www.w3.org/2000/svg"><g id="Flat"><path d="m335.5 329.9-63.8 73.6-4.7 5.4-27 31.1v24l10.5 5.3c3.3 1.7 5.5 5.1 5.5 8.8 0 5.5-4.4 9.9-9.9 9.9h-30.1l-16-48 41.1-56 46.9-64h-95.8c-22.2 0-40.2-18-40.2-40.2 0-5.1 1-10.2 2.9-15l3.5-8.8 9.6-24v-67.3c0-4.2.3-8.4 1-12.5s1.7-8.2 3-12.2c1.3-3.9 2.3-7.9 3-12 .7-4.2 1-8.4 1-12.7v-62.7c0-15.6 12.8-28.8 28.4-28.6 15.3.2 27.6 12.7 27.6 28v4l8 16-8 4v12c0 4.4-3.6 8-8 8h-16v28.2c0 2.4.8 4.8 2.4 6.7l17.8 22.3 6.4 8c8.5 10.7 6.8 26.3-3.9 34.8-1.4 1.1-2.8 2-4.4 2.8l-2.3 1.2-8 32v40h92.4c17.5 0 32.7 12.6 35.2 29.9 1.5 10-1.5 20.3-8.1 28z" fill="#fec093"/><path d="m238.6 168.5c-.9-2.6-2.3-5.1-4-7.3l-6.4-8c-19.5-.5-32.4-6.5-40.5-12.5-2.5-1.9-5.7-2.6-8.9-2-4.4.8-7.8 4.2-8.8 8.5-.4 1.6-.7 3.3-1 5-.7 4.1-1 8.3-1 12.5v35.3h56l2.3-1.1c11.2-5.6 16.4-18.6 12.3-30.4z" fill="#c378cb"/><path d="m360 136h-124c-7.9 0-15.8-1.3-23.4-3.8l-1.2-.4c-7.5-2.5-15.4-3.8-23.4-3.8-11 0-20 9-20 20 0 11 9 20 20 20h84l88-8 24 4 24-4v-24z" fill="#fec9a3"/><path d="m168 40h-32c-13.3 0-24 10.7-24 24v56h8c13.3 0 24-10.7 24-24v-32l24-8z" fill="#6e3c26"/><path d="m185.6 75.2-6.1-6.1c-3.8-3.8-3.8-10.1 0-13.9 3-3 7.6-3.7 11.4-1.8l2.1 1.1 21.5-28.5c-3.3-1.3-6.9-2-10.5-2h-12.7c-.5 0-1 0-1.5 0-20.9.8-36.3 19.8-33.7 40.6l.2 1.1c2.4 14.5 9.3 27.9 19.7 38.3z" fill="#6e3c26"/><path d="m335.5 329.9-63.8 73.6-30.6-19.5 46.9-64h-95.8c-22.2 0-40.2-18-40.2-40.2 0-5.1 1-10.2 2.9-15l3.5-8.8h57.6v16h92.4c17.5 0 32.7 12.6 35.2 29.9 1.5 10-1.5 20.3-8.1 28z" fill="#bc4598"/></g></svg>