<svg id="Layer_1" enable-background="new 0 0 512 512" height="512" viewBox="0 0 512 512" width="512" xmlns="http://www.w3.org/2000/svg"><g id="Flat"><path d="m488 335.3c0 16.1-13.1 29.2-29.2 29.2-1.1 0-2.2-.1-3.2-.2l-173.4-19.3-10.2-1h-32l-10.5 1.2-173 19.2c-1.1.1-2.2.2-3.3.2-16.2-.1-29.2-13.2-29.2-29.3 0-13.6 9.5-25.4 22.8-28.5l153.2-34.8 5.3-16h101.3l5.3 16 153.2 34.8c13.5 3.1 22.9 14.9 22.9 28.5z" fill="#b03b8d"/><path d="m250.8 344h-10.8l-10.5 1.2-13.6-13.9c-3.1-3.1-3.1-8.2.1-11.3 3.1-3.1 8.2-3.1 11.3.1z" fill="#a33484"/><path d="m296 331.3-13.8 13.8-10.2-1.1h-11l-.2-.2 23.8-23.8c3.1-3.1 8.2-3.1 11.3 0 3.2 3.1 3.2 8.2.1 11.3z" fill="#a33484"/><path d="m488 337.9c0 17-13 31.2-30 32.6l-86.7 7.2-75.3 6.3-12.4 31c-2.2 5.4-7.4 9-13.3 9-7.9 0-14.3-6.4-14.3-14.3v-65.7h40l67.6-16.9 83.8-21c17.5-4.4 35.3 6.3 39.7 23.8.6 2.7.9 5.3.9 8z" fill="#feb784"/><path d="m488 337.9c0 17-13 31.2-30 32.6l-86.7 7.2-7.8-50.6 83.8-21c17.5-4.4 35.3 6.3 39.7 23.8.7 2.7 1 5.3 1 8z" fill="#bc4598"/><path d="m24 337.9c0 17 13 31.2 30 32.6l86.7 7.2 75.3 6.3 12.4 31c2.2 5.4 7.4 9 13.3 9 7.9 0 14.3-6.4 14.3-14.3v-65.7h-40l-67.6-16.9-83.8-20.9c-17.5-4.4-35.3 6.3-39.7 23.8-.6 2.6-.9 5.2-.9 7.9z" fill="#feb784"/><path d="m24 337.9c0 17 13 31.2 30 32.6l86.7 7.2 7.8-50.6-83.8-20.9c-17.5-4.4-35.3 6.3-39.7 23.8-.7 2.6-1 5.2-1 7.9z" fill="#bc4598"/><path d="m448 354c0 17.4-12.4 32.3-29.5 35.4l-58.5 10.6-24 8h-49.5l9.5-24 28-9-17.2-4.1c-3.9-.9-6.3-4.9-5.4-8.8.8-3.5 4-5.8 7.6-5.6l28 2 63-6.5-72-112-16 32h-112l-16-32-72 112 63 6.5 28-2c4-.3 7.5 2.7 7.8 6.8.3 3.6-2.1 6.8-5.6 7.6l-17.2 4.1 28 9 9.5 24h-49.5l-24-8-58.4-10.6c-19.6-3.6-32.5-22.3-29-41.8.8-4.3 2.3-8.4 4.6-12.1l64.7-107.8c8.3-13.8 19.2-25.9 32.2-35.5 12-8.8 25.6-15.1 40.1-18.6 15.8-3.9 32.4-5 49.9-5.6 17.4.6 34 1.7 49.9 5.6 14.5 3.4 28.1 9.7 40.1 18.6 13 9.6 23.9 21.7 32.2 35.5l64.7 107.8c3.2 5.5 5 11.9 5 18.5z" fill="#fec9a3"/><path d="m328 240-16 32h-112l-16-32s16.5-23.5 22.1-66.4c15.8-3.9 32.4-5 49.9-5.6 17.4.6 34 1.7 49.9 5.6 5.6 42.9 22.1 66.4 22.1 66.4z" fill="#c378cb"/><path d="m220 272h12v-24h-12c-6.6 0-12 5.4-12 12 0 6.6 5.4 12 12 12z" fill="#feb784"/><path d="m292 248h-12v24h12c6.6 0 12-5.4 12-12 0-6.6-5.4-12-12-12z" fill="#feb784"/><path d="m336 88v28.1c0 21.6-13.4 40.9-33.6 48.5l-20 7.5c-5.2 1.9-9 6.4-10.1 11.9-.2 1-.3 2.1-.3 3.1v28.9h-32v-40c0-19.6 11.1-37.5 28.6-46.3l51.4-25.7z" fill="#6e3c26"/><path d="m272.3 184c-.2 1-.3 2.1-.3 3.1v28.9h-32v-32z" fill="#bc4598"/><path d="m256 208c22.1 0 40 17.9 40 40v24c0 22.1-17.9 40-40 40-22.1 0-40-17.9-40-40v-24c0-22.1 17.9-40 40-40z" fill="#6e3c26"/><path d="m248 344h16v56c0 4.4-3.6 8-8 8-4.4 0-8-3.6-8-8z" fill="#f5a76e"/></g></svg>