<svg height="512" viewBox="0 0 512 512" width="512" xmlns="http://www.w3.org/2000/svg"><g id="Flat"><path d="m136 392h-72a32 32 0 0 1 -32-32v-16h24l8 16h40a32 32 0 0 1 32 32z" fill="#61311c"/><path d="m104 304v-24h-24l-8-8-14.46 14.92-7.75 1.17a30.865 30.865 0 0 0 -19.63 13.24 31.19 31.19 0 0 0 -4.62 11.45 30.811 30.811 0 0 0 .12 11.79c3.41 16.73 21.6 30.84 38.34 27.43 0 0 23.93-2.93 48-8h24v-48z" fill="#fec9a3"/><path d="m488 382.11a9.9 9.9 0 0 1 -9.89 9.89h-62.11l-3.84-96-4.16-112-64 40a57.387 57.387 0 0 1 -56.66 48h-23.34l-22.45 29.94-49.55 66.06h-56v-87.03a41.011 41.011 0 0 1 17.96-33.91 41.812 41.812 0 0 1 23.59-7.06h14.45l58.39-38.93 37.61-25.07 112.1-52.31a39.288 39.288 0 0 1 55.9 35.59v200.72l26.53 13.27a9.886 9.886 0 0 1 5.47 8.84z" fill="#fec093"/><path d="m85.106 333.181-5.226 7.9a10.855 10.855 0 0 1 -19.507-8.916l.715-2.552-35.548-16.835c-3.686 14.336-3.131 38.19 19.177 50.749 31.403 17.679 67.283-19.527 67.283-19.527z" fill="#6e3c26"/><path d="m178.351 304.3c12.576 1.91 21.649 13.11 21.649 25.831v27.2l41.55-55.394-49.55-61.937h-14.451a41.8 41.8 0 0 0 -23.59 7.064 41 41 0 0 0 -17.959 33.906v87.03l14.83-46.208c3.6-11.208 14.413-18.812 26.128-17.67q.696.067 1.393.178z" fill="#b76bbf"/><path d="m136 368a24 24 0 0 1 24-24h3.351a77.956 77.956 0 0 1 24.649 4 77.956 77.956 0 0 0 24.649 4h35.351l80 8 32-8h16v40h-216a24 24 0 0 1 -24-24z" fill="#fec9a3"/><path d="m456 159.28v136.72h-43.84l-4.16-112-64 40a57.463 57.463 0 0 1 -42.83 46.32l-50.78-69.25 37.61-25.07 112.1-52.31a39.288 39.288 0 0 1 55.9 35.59z" fill="#bc4598"/></g></svg>