<svg height="512" viewBox="0 0 512 512" width="512" xmlns="http://www.w3.org/2000/svg"><g id="Flat"><path d="m120 256v64l8 16-20.649-6.883a40 40 0 0 1 -27.351-37.947v-75.17a40 40 0 0 1 40 40z" fill="#6e3c26"/><path d="m92.789 176.2c-22.972 8.613-41.413 16.349-41.413 16.349-15.913 6.086-23.681 27.7-17.595 43.612a30.838 30.838 0 0 0 39.838 17.795l7.154-3.168 20.153 4.82 2.453-11.016 13.451-8.552a8 8 0 0 0 2.459-11.04l-8.553-13.451 9.264-11.549v-48z" fill="#fec093"/><path d="m79.214 197.1-8.629-3.856a10.828 10.828 0 0 0 -11.648 17.945l1.968 1.766-20.911 33.2c-10.776-10.095-23.074-30.471-11.018-52.982 16.971-31.694 63.813-16.973 63.813-16.973z" fill="#6e3c26"/><path d="m488 379.975a12.332 12.332 0 0 1 -12.35 12.025h-170.68a41 41 0 0 1 -33.9-17.95 41.779 41.779 0 0 1 -7.07-23.592v-118.458l-32-48h-24l-1.77 5.31a35.9 35.9 0 0 1 -50.11 20.75l-36.12-18.06v-40a100.534 100.534 0 0 1 128.43-19.43l31.57 19.43 9.6 6.4 26.77 17.85a52.629 52.629 0 0 1 20.74 60.43l-9.11 27.32-16 88h23l41 5.64 39 5.36 16.976-7.469a16 16 0 0 1 15.319 1.332l16.705 11.137h12a11.984 11.984 0 0 1 12 11.975z" fill="#fec093"/><path d="m224.92 121.97-16.92 62.03-1.77 5.31a35.9 35.9 0 0 1 -50.11 20.75l-36.12-18.06v-40a100.622 100.622 0 0 1 104.92-30.03z" fill="#c378cb"/><path d="m376 357.64v34.36h-71.03a40.971 40.971 0 0 1 -40.97-40.97v-119.03l-16-24 6.56-7.87 33.44-40.13 1.6-1.6 26.77 17.85a52.629 52.629 0 0 1 20.74 60.43l-9.11 27.32-16 88h23z" fill="#bc4598"/><path d="m264 208v24l-16-24 6.56-7.87a7.638 7.638 0 0 1 1.44-.13 7.989 7.989 0 0 1 8 8z" fill="#a33484"/><path d="m196.11 117.64c-10.04 37.5-36.11 58.36-36.11 58.36v96l-8 120h-54.469a8.953 8.953 0 0 1 -8.936-9.513 8.951 8.951 0 0 1 6.7-8.111l24.705-6.376v-216a100.544 100.544 0 0 1 76.11-34.36z" fill="#fec093"/><rect fill="#f7b488" height="32" rx="8" width="16" x="152" y="144"/></g></svg>