<svg height="512" viewBox="0 0 512 512" width="512" xmlns="http://www.w3.org/2000/svg"><g id="Flat"><path d="m384.73 183.47-41.31 82.49-51.64-30.94-38.29 47.78-3.02 3.78-3.7 11.08a38.2 38.2 0 0 1 -63.22 14.9l-5.61-5.6-20.42-20.38-31.52 35.42 13.97 24.39-23.1 15.38-2.57 12.81-23.49-5.08-8.22 3.85a35.811 35.811 0 0 1 -39.18-8.19v-.01l-.06-.06a35.458 35.458 0 0 1 -7.4-11.34c-7.45-18.27 1.01-43.49 19.31-50.93 0 0 24.21-7.29 50.63-17.83 0 0 39.41-49.67 89.05-74.8 3.77-1.91 7.59-3.68 11.46-5.27 3.15-1.3 6.69-2.64 10.55-4.01 29.47-10.39 78.08-21.8 123.64-21.8a205.664 205.664 0 0 1 44.14 4.36z" fill="#fec093"/><path d="m34.278 302.074-9.368-35.76a27.718 27.718 0 0 1 19.837-33.834l62.679-16.367 15.566-13.613 4.684 17.88a27.718 27.718 0 0 1 -19.837 33.835l-53.725 14.025-1.928 29.16z" fill="#6e3c26"/><path d="m87.655 307.381-10.1-4.248a12.544 12.544 0 0 0 -13.055 21.067l2.326 1.994-23.419 38.959c-12.748-11.417-27.52-34.7-14.1-61.063 18.885-37.111 76.584-19.1 76.584-19.1z" fill="#6e3c26"/><path d="m253.49 282.8-3.02 3.78-3.7 11.08a38.2 38.2 0 0 1 -63.22 14.9l-5.61-5.6c14.37-18.43 28.3-49.77 17-96.77 3.77-1.91 7.59-3.68 11.46-5.27 3.15-1.3 6.69-2.64 10.55-4.01z" fill="#c378cb"/><path d="m488 363.91a15.477 15.477 0 0 1 -15.48 15.47h-211.72l-10.33-51.56 92.95 6.63 51.63 3.68 20.66-20.62 51.64 30.93h5.16a15.486 15.486 0 0 1 15.49 15.47z" fill="#f7b488"/><path d="m445.048 238.773a69.955 69.955 0 0 0 -41.932-47.962l-18.39-7.344-41.309 82.489-101.847 14.526a49.724 49.724 0 0 0 -42.737 49.2 49.738 49.738 0 0 0 49.776 49.7h12.191v-.01.012h82.62v-44.934l-20.434-1.472 53.617-3.836a70.111 70.111 0 0 0 33.842-11.564l5.509-3.667a69.872 69.872 0 0 0 29.094-75.138z" fill="#bc4598"/><path d="m392 374.318 27.13-20.348a9.848 9.848 0 0 1 10.314-.93 9.849 9.849 0 0 1 3.474 14.719l-16.918 22.559z" fill="#feb784"/><path d="m462.8 362.989a9.058 9.058 0 0 0 -10.232 1.08l-12.568 10.778-44.946-5.78-113.6-51.556-89.454-45.511-40-32v49.77a33.749 33.749 0 0 0 20.424 31.007l88.376 37.979 134.254 41.244h52.946l17.713-23.618a9.06 9.06 0 0 0 -2.913-13.393z" fill="#fec093"/><path d="m346 265a8 8 0 0 1 6.279-9.412l33.363-6.222a8 8 0 0 1 9.412 6.279 8 8 0 0 1 -6.279 9.411l-33.363 6.223a8 8 0 0 1 -9.412-6.279z" fill="#a33484"/></g></svg>