<svg height="512" viewBox="0 0 512 512" width="512" xmlns="http://www.w3.org/2000/svg"><g id="Flat"><path d="m440 240v32h-40v28.75a24 24 0 0 1 -18.79 23.43l-53.21 11.82-64 32-24 16-8-24 80-48 56-16-32-16v-48l32-16-56-16-80-48 8-24 24 16 64 32 53.21 11.82a24 24 0 0 1 18.79 23.43v28.75z" fill="#fec093"/><path d="m436 240v32h-24a20 20 0 0 1 0-32z" fill="#feb784"/><path d="m400 276.571v6.858l-28.444 6.857-3.326 2.138a25.021 25.021 0 0 1 -32.23-4.424v-64a25.021 25.021 0 0 1 32.23-4.424l3.326 2.138 28.444 6.857v6.858l-8.283 1.577a19.335 19.335 0 0 0 -15.717 18.994 19.335 19.335 0 0 0 15.717 18.994z" fill="#b76bbf"/><path d="m336 224v64a66.57 66.57 0 0 0 -47.25 1.97c-.25.11-.5.21-.75.32a193.335 193.335 0 0 1 -67.6 15.13l-124.4 4.98-40 1.6-22.34 22.34a5.657 5.657 0 0 1 -9.66-4v-16.63a5.678 5.678 0 0 1 .95-3.14l15.05-22.57 56-6.72 144-17.28v-16l-144-17.28-56-6.72-15.05-22.57a5.678 5.678 0 0 1 -.95-3.14v-16.63a5.657 5.657 0 0 1 9.66-4l22.34 22.34 40 1.6 124.4 4.98a193.222 193.222 0 0 1 67.6 15.13c.25.11.5.21.75.32a66.57 66.57 0 0 0 47.25 1.97z" fill="#fec093"/><path d="m288 221.71v68.58a193.335 193.335 0 0 1 -67.6 15.13l-124.4 4.98v-29.12l144-17.28v-16l-144-17.28v-29.12l124.4 4.98a193.222 193.222 0 0 1 67.6 15.13z" fill="#bc4598"/><path d="m288 248h24v16h-24z" fill="#f7b488"/><path d="m480 268v16a32 32 0 0 1 -32 32h-32l-8 8a32 32 0 0 1 32-32h16l8-24z" fill="#6e3c26"/><path d="m438.154 234v8h16.615v-8a8.158 8.158 0 0 0 -8.307-8 8.158 8.158 0 0 0 -8.308 8z" fill="#feb784"/><path d="m454.769 278v-8h-16.615v8a8.158 8.158 0 0 0 8.308 8 8.158 8.158 0 0 0 8.307-8z" fill="#feb784"/><path d="m416 256a20.655 20.655 0 0 1 16.119-19.881l2.646-.637a29.457 29.457 0 0 1 6.882-.815h13.122c12.235 0 22.154 9.551 22.154 21.333 0 11.782-9.919 21.333-22.154 21.333h-13.122a29.457 29.457 0 0 1 -6.882-.815l-2.646-.637a20.655 20.655 0 0 1 -16.119-19.881z" fill="#fec093"/><path d="m471.385 261.333s-11.077 5.334-25.724 19.845a73 73 0 0 0 14.647 1.489c15.292 0 27.692-11.939 27.692-26.667 0-14.728-12.4-26.667-27.692-26.667a73.116 73.116 0 0 0 -8.523.5c3.098 8.219 4.415 19.926 19.6 31.5z" fill="#6e3c26"/></g></svg>