<svg height="512" viewBox="0 0 512 512" width="512" xmlns="http://www.w3.org/2000/svg"><g id="Flat"><path d="m228.4 389.33-73.6 36.393h-73.6a9.149 9.149 0 0 0 -9.2 9.1v13.327a9.071 9.071 0 0 0 4.1 7.57l16.73 11.03a18.574 18.574 0 0 0 14.67 2.513l28.9-7.146 20 6.593a18.58 18.58 0 0 0 14.629-1.288l57.369-32.6z" fill="#fec093"/><path d="m283.6 389.33 73.6 36.393h73.6a9.149 9.149 0 0 1 9.2 9.1v13.327a9.071 9.071 0 0 1 -4.1 7.57l-16.73 11.03a18.574 18.574 0 0 1 -14.67 2.513l-28.9-7.146-20 6.593a18.58 18.58 0 0 1 -14.629-1.288l-57.369-32.6z" fill="#fec093"/><path d="m332.11 42.287a23.172 23.172 0 0 0 -20.91 23.168v113.212h-28.2a4 4 0 0 1 -4-4v-59.687h-46v59.682a4 4 0 0 1 -4 4h-55.8a27.448 27.448 0 0 0 -27.6 27.294v95.534a23 23 0 0 0 46 0v-77.333l18.4 63.686h92l9.2-36.392 29.832-29.5a54.283 54.283 0 0 0 16.168-38.6v-118.41a22.9 22.9 0 0 0 -25.09-22.654z" fill="#feb784"/><path d="m348 422.97c0 35.91-29.44 65.03-65.76 65.03h-52.48a65.92 65.92 0 0 1 -46.5-19.05 64.456 64.456 0 0 1 -10.98-77.56l17.24-30.7 15.85-28.21a36.055 36.055 0 0 0 4.63-17.67v-26.97h92v26.97a36.055 36.055 0 0 0 4.63 17.67l15.69 27.94 17.4 30.97a64.34 64.34 0 0 1 8.28 31.58z" fill="#fec093"/><path d="m348 422.97c0 35.91-29.44 65.03-65.76 65.03h-52.48a65.92 65.92 0 0 1 -46.5-19.05 64.456 64.456 0 0 1 -10.98-77.56l17.24-30.7 2.08-.06h128.8l1.92-.21 17.4 30.97a64.34 64.34 0 0 1 8.28 31.58z" fill="#bc4598"/><path d="m283.6 178.667h18.4v15.308a165.316 165.316 0 0 0 10.665 58.417l-10.665 35.451h-92l-12.811-35.451a143.378 143.378 0 0 0 12.811-59.241v-14.484h18.4a34.64 34.64 0 0 0 55.2 0z" fill="#c378cb"/><path d="m237.6 133.176h36.8a68.956 68.956 0 0 0 25.014-39.5 114.431 114.431 0 0 0 2.586-24.186c0-25.123-20.6-45.49-46-45.49-25.4 0-46 20.367-46 45.49a114.431 114.431 0 0 0 2.586 24.184 68.956 68.956 0 0 0 25.014 39.5z" fill="#6e3c26"/><path d="m241.6 51.294a18.3 18.3 0 0 1 -18.4 18.2h-13.2v42.506a36.6 36.6 0 0 1 -36.8 36.392v-78.902a36.6 36.6 0 0 1 36.8-36.39h13.2a18.3 18.3 0 0 1 18.4 18.194z" fill="#6e3c26"/><path d="m357.2 64.69v7.09a22.29 22.29 0 0 1 -3.82 12.47l-51.38 76.22-14.6 28.88-3.8 7.51-4.79 7.11-13.61 20.19-18.4 9.09-57.17 80.78a24.256 24.256 0 0 1 -44.03-13.73v-2.54a23.809 23.809 0 0 1 7.09-16.93l66.51-65.77 13.57-20.13 4.83-7.17 3.77-7.45 5.43-10.74 18.4-18.2 48.91-96.74a22.792 22.792 0 0 1 43.09 10.06z" fill="#fec093"/><g fill="#f7b488"><path d="m264 360.627h-16v-28.392a8 8 0 0 1 8-8 8 8 0 0 1 8 8z"/><path d="m287.4 189.35-3.8 7.51-4.79 7.11-46.04-9.04 4.83-7.17 3.77-7.45z"/></g></g></svg>