<svg height="512" viewBox="0 0 512 512" width="512" xmlns="http://www.w3.org/2000/svg"><g id="Flat"><path d="m488 403.975a12.332 12.332 0 0 1 -12.35 12.025h-179.65a40 40 0 0 1 -40-40v-104h-49.839a32 32 0 0 1 -11.881-2.287l-26.64-10.653-7.64-3.06-8.04 8.04a27.2 27.2 0 0 1 -40.11-1.82l-9.84-11.81-22.01-26.41v-24a24 24 0 0 1 24-24h12.7a67.251 67.251 0 0 1 35.655 10.23l23.51 14.69 18.1 11.31a16.011 16.011 0 0 0 12.87 1.82l17.16-4.9 10.95-3.13a155.918 155.918 0 0 1 42.955-6.02 51.613 51.613 0 0 1 50.07 64.13l-7.97 31.87-8 72h28.061a32.027 32.027 0 0 1 7.761.955l60.178 15.045 17.68-11.79a12 12 0 0 1 12.83-.3l33.49 20.09h4a11.984 11.984 0 0 1 12 11.975z" fill="#fec093"/><path d="m24 144 8 4v12a8 8 0 0 0 8 8h16l24 48 40-24-22-24-8-48c0-15.46-14.54-24-30-24a28 28 0 0 0 -28 28v4z" fill="#feb784"/><path d="m96 112h38.264a32 32 0 0 1 27.136 15.04l30.6 48.96 8 8h-27.156a24 24 0 0 1 -19.969-10.687l-18.013-27.019a32 32 0 0 0 -18.862-13.294l-20-5z" fill="#6e3c26"/><path d="m82 144 2.455-2.894a9.826 9.826 0 0 0 -11.436-15.689l-2.134 1.1-21.365-28.487a27.867 27.867 0 0 1 10.48-2.03h12.73q.751 0 1.5.03c20.858.838 36.283 19.849 33.7 40.564l-.183 1.09c-2.44 14.516-9.747 30.316-9.747 30.316z" fill="#6e3c26"/><path d="m175.87 200.92-7.87 55.08-.36 3.06-7.64-3.06-8.04 8.04a27.2 27.2 0 0 1 -40.11-1.82l-9.84-11.81c15.55-10.72 34.48-29.69 49.99-63l.36-1.18z" fill="#c378cb"/><path d="m104 176a24 24 0 0 0 -24 24v192l-25.194 6.3a8.985 8.985 0 0 0 2.179 17.7h55.015l8-120v-120z" fill="#fec093"/><path d="m360 372v44h-64a40 40 0 0 1 -40-40v-104h-32v-62.85l10.95-3.13a155.918 155.918 0 0 1 42.95-6.02 51.613 51.613 0 0 1 50.07 64.13l-7.97 31.87-8 72h28.061a32.027 32.027 0 0 1 7.761.955z" fill="#bc4598"/><rect fill="#a33484" height="23.995" rx="8" width="16" x="248" y="248"/></g></svg>