<svg height="512" viewBox="0 0 512 512" width="512" xmlns="http://www.w3.org/2000/svg"><g id="Flat"><path d="m302.69 352.31a49.005 49.005 0 0 0 -3.85-10.63l-26.84-53.68v-72l6.92-3.46a24.5 24.5 0 0 0 6.37-39.25l-33.29-29.29-4-24h9.108a8 8 0 0 0 8-8v-9.354l6.892-6.892-6.892-13.785v-3.446a24.12 24.12 0 0 0 -26.408-24.018c-12.969 1.185-22.7 12.45-22.7 25.475v80.14a63.915 63.915 0 0 0 1.91 15.52l2.09 8.36 12 48-14.54 19.38a47.325 47.325 0 0 0 .5 57.43l46.04 59.19-12.76 25.52a100.461 100.461 0 0 0 -5.53 13.36l-3.35 10.06-18.36 55.06v16h37.55a9.473 9.473 0 0 0 9.43-10.4 9.325 9.325 0 0 0 -1.4-4.1 9.549 9.549 0 0 0 -3.08-3.05l-10.5-6.45 18.63-34.15 23.4-42.91a48.827 48.827 0 0 0 4.66-34.63z" fill="#feb784"/><path d="m292.47 190.62a24.52 24.52 0 0 1 -13.55 21.92l-6.92 3.46h-44l-8-32-2.09-8.36a63.915 63.915 0 0 1 -1.91-15.52v-16.12h36l33.292 29.29a24.5 24.5 0 0 1 7.178 17.33z" fill="#c378cb"/><path d="m208.246 68.185h-27.569a20.676 20.676 0 0 0 -20.677 20.677v48.246h6.892a20.677 20.677 0 0 0 20.677-20.677v-21.8a8 8 0 0 1 5.47-7.59l15.207-5.069z" fill="#6e3c26"/><path d="m225.141 98.486-5.225-5.225a8.465 8.465 0 0 1 9.852-13.517l1.839.944 18.407-24.539a24 24 0 0 0 -9.029-1.749h-10.968q-.646 0-1.289.026c-17.971.722-31.26 17.1-29.031 34.947l.158.939c2.095 12.5 7.179 20.722 16.145 29.688z" fill="#6e3c26"/><path d="m304 363.54a48.812 48.812 0 0 1 -5.97 23.4l-23.4 42.91-32.27-12.91 3.35-10.06a100.461 100.461 0 0 1 5.53-13.36l12.76-25.52-46.04-59.19a47.3 47.3 0 0 1 -3.47-52.95l1.51.14h56v32l26.84 53.68a48.977 48.977 0 0 1 5.16 21.86z" fill="#ab3989"/><path d="m328 32v87.67a16.028 16.028 0 0 1 -6.82 13.11l-44.94 31.46-19.978 13.979a32 32 0 0 1 -18.346 5.781h-17.916l-2.09-8.36a63.915 63.915 0 0 1 -1.91-15.52v-16.12h24l56-32 8-48-13.17-19.76a6.213 6.213 0 0 1 1.724-8.625 6.376 6.376 0 0 1 8 .942l3.446 3.443v-8a8 8 0 0 1 8-8h8a8 8 0 0 1 8 8z" fill="#fec093"/><path d="m326.953 140.509-22.953-76.509-10.25-15.375a71.062 71.062 0 0 0 -8.431 49.968l10.452 51.969-20.219 14.16s9.063 7.893 10.042 8.872a27.914 27.914 0 0 1 2.093 2.484l20.353-4.086a24.831 24.831 0 0 0 18.913-31.483z" fill="#fec9a3"/><path d="m336 340.73a33.575 33.575 0 0 1 -16.64 28.98l-35.2 20.53-44.16 25.76-4.32 12.95a10.1 10.1 0 0 1 -19.68-3.19v-33.76l43.333-30 36.667-26-24-48 45.46 22.73a33.549 33.549 0 0 1 18.54 30z" fill="#fec093"/><path d="m336 340.73a33.575 33.575 0 0 1 -16.64 28.98l-35.2 20.53-24.827-28.24 36.667-26-24-48 45.46 22.73a33.549 33.549 0 0 1 18.54 30z" fill="#bc4598"/></g></svg>