<svg height="512" viewBox="0 0 512 512" width="512" xmlns="http://www.w3.org/2000/svg"><g id="Flat"><path d="m408 184-32 64-40-24-29.66 37.07-2.34 2.93-2.87 8.6a29.573 29.573 0 0 1 -48.97 11.56l-20.16-20.16-16.94-32q13.2-8.67 26.91-16.52 6.675-3.81 13.46-7.43 7.155-3.825 14.43-7.41c2.61-1.29 5.25-2.52 7.9-3.69a209.454 209.454 0 0 1 130.24-12.95z" fill="#fec093"/><path d="m232 264-16.941-32q-8.805 5.781-17.372 11.923l-5.687 4.077c-20.467 8.183-39.216 13.833-39.216 13.833-14.176 5.776-20.734 25.341-14.958 39.516a27.706 27.706 0 0 0 36.129 15.21l6.364-2.984 18.2 3.938 1.99-9.942 17.9-11.93-9.384-12.874z" fill="#feb784"/><path d="m135.962 261.259-7.257-27.745a21.509 21.509 0 0 1 15.367-26.251l48.553-12.7 12.058-10.563 3.629 13.872a21.509 21.509 0 0 1 -15.367 26.251l-36.039 9.426a8 8 0 0 0 -5.958 7.212l-1.114 16.87z" fill="#6e3c26"/><path d="m177.877 265.376-7.826-3.3a9.728 9.728 0 0 0 -10.114 16.345l1.8 1.547-18.137 30.232c-9.876-8.858-21.319-26.922-10.926-47.376 14.626-28.794 59.326-14.824 59.326-14.824z" fill="#6e3c26"/><path d="m232 224-80 48-88 40-32.932 6.586a8.792 8.792 0 0 0 1.724 17.414h31.208l104-32 73-45.5z" fill="#fec093"/><path d="m306.34 261.07-2.34 2.93-2.87 8.6a29.573 29.573 0 0 1 -48.97 11.56l-7.99-7.99c9.74-14.15 17.99-36.36 11.26-68.12q7.155-3.825 14.43-7.41c2.61-1.29 5.25-2.52 7.9-3.69l26.24 59.05z" fill="#c378cb"/><path d="m488 324.219a12.26 12.26 0 0 1 -12.4 11.781h-173.04a38.558 38.558 0 0 1 -5.45-76.73l78.89-11.27 32-64 14.25 5.7a54.25 54.25 0 0 1 9.94 95.51l-4.27 2.84a54.188 54.188 0 0 1 -26.21 8.97l-41.62 2.99 15.91 1.14 40 2.85 7.167-7.167a16 16 0 0 1 19.545-2.406l29.288 17.573h4a12 12 0 0 1 12 12.219z" fill="#fec093"/><path d="m432.19 285.21-4.27 2.84a54.188 54.188 0 0 1 -26.21 8.97l-41.62 2.99 15.91 1.14v34.85h-73.44a38.558 38.558 0 0 1 -5.45-76.73l78.89-11.27 32-64 14.25 5.7a54.25 54.25 0 0 1 9.94 95.51z" fill="#b53f92"/><g fill="#a33484"><path d="m378.25 248a8 8 0 0 1 6.276-9.414l22.06-4.862a8 8 0 0 1 9.414 6.276 8 8 0 0 1 -6.276 9.414l-22.06 4.862a8 8 0 0 1 -9.414-6.276z"/><path d="m367.446 308.481-56.037-3.932a8 8 0 0 1 -7.409-8.549 8 8 0 0 1 8.549-7.409l56.037 3.931a8 8 0 0 1 7.41 8.549 8 8 0 0 1 -8.55 7.41z"/></g></g></svg>