<svg height="512" viewBox="0 0 512 512" width="512" xmlns="http://www.w3.org/2000/svg"><g id="Flat"><path d="m112 328h-48a24 24 0 0 1 -24-24v-16h16l8 16h24a24 24 0 0 1 24 24z" fill="#61311c"/><path d="m488 299.975a12.332 12.332 0 0 1 -12.35 12.025h-3.65l-27.85 13.92a19.6 19.6 0 0 1 -8.79 2.08h-3.22a19.7 19.7 0 0 1 -13.819-5.68 7.829 7.829 0 0 0 -5.491-2.32h-132.83l-24.21 6.05a64.905 64.905 0 0 1 -15.82 1.95h-7.4a65.231 65.231 0 0 1 -64.57-56l-8-8h-48a23.924 23.924 0 0 1 -15.49-5.67l-8.51 5.67a242.722 242.722 0 0 1 -17.89 30.15c-5.47 11.05-21.88 15.3-33.21 9.97a22.581 22.581 0 0 1 -6.97-5.06 22.2 22.2 0 0 1 -4.66-7.62 21.588 21.588 0 0 1 1.01-16.96l2.77-4.94-3.55-12.54 8-1 7.319-9.706a8 8 0 0 1 11.221-1.381l3.96 3.087 32-24 35.29-28.24 1.71-1.36a26.645 26.645 0 0 1 16.64-5.84c.53 0 1.05.02 1.58.05a26.633 26.633 0 0 1 21.82 13.91l2.96 5.48 5.69 2.84c1.14.57 2.25 1.18 3.34 1.83a52.4 52.4 0 0 1 14.17 12.33l24.8 31 4.8 3.2 19.2 12.8h24l128 11.64 48 4.36h36a11.984 11.984 0 0 1 12 11.975z" fill="#feb784"/><path d="m177.03 212.67-1.03 3.33-16 48h-24c12.75-31.88-4.98-58.67-12.71-68.24l1.71-1.36a26.645 26.645 0 0 1 16.64-5.84c.53 0 1.05.02 1.58.05a26.633 26.633 0 0 1 21.82 13.91l2.96 5.48 5.69 2.84c1.14.57 2.25 1.18 3.34 1.83z" fill="#c378cb"/><path d="m392 283.64v36.36h-112l-24.21 6.05a64.905 64.905 0 0 1 -15.82 1.95h-7.4a65.179 65.179 0 0 1 -53.15-27.42l41.38-41.38 19.2 12.8h24z" fill="#b53f92"/><path d="m69.038 273.23 2.3 6.421a7.632 7.632 0 0 1 -1.436 7.588 8.14 8.14 0 0 1 -12.508-.325l-1.175-1.514-25.756 12.974c6.763 8.34 21 18.4 38.335 11.118 24.402-10.246 19.202-45.492 19.202-45.492z" fill="#6e3c26"/><path d="m200 304-69.046-6.277-8.776-59.066a17.183 17.183 0 0 0 -17-14.657 17.182 17.182 0 0 0 -17.178 17.182 68.868 68.868 0 0 0 1.337 13.5l10.8 54.022a24 24 0 0 0 23.538 19.296h116.325a19.518 19.518 0 0 0 -15.689-19.138z" fill="#fec093"/></g></svg>