<svg height="512" viewBox="0 0 512 512" width="512" xmlns="http://www.w3.org/2000/svg"><g id="Flat"><path d="m336 248h16l-8-16v-64a32 32 0 0 0 -32-32h-32v24l24 8v48a32 32 0 0 0 32 32z" fill="#61311c"/><path d="m400 376h48l20.977-13.985a12 12 0 0 1 6.656-2.015h.367a12 12 0 0 0 12-12 12 12 0 0 0 -12-12h-8.223a15.994 15.994 0 0 0 -7.155 1.689l-12.622 6.311-21.537-7.179a15.992 15.992 0 0 0 -5.063-.821h-5.4a16 16 0 0 0 -16 16z" fill="#feb784"/><path d="m112 376h-48l-20.977-13.985a12 12 0 0 0 -6.656-2.015h-.367a12 12 0 0 1 -12-12 12 12 0 0 1 12-12h8.223a15.994 15.994 0 0 1 7.155 1.689l12.622 6.311 21.537-7.179a15.992 15.992 0 0 1 5.063-.821h5.4a16 16 0 0 1 16 16z" fill="#feb784"/><path d="m344 336h-176l-109.592 41.1a28.368 28.368 0 0 0 -18.408 26.559v3.752a28.375 28.375 0 0 0 4.764 15.736 28.368 28.368 0 0 0 30.823 11.7l132.413-34.847h96l132.412 34.845a28.368 28.368 0 0 0 30.823-11.7 28.375 28.375 0 0 0 4.765-15.734v-3.752a28.368 28.368 0 0 0 -18.408-26.559z" fill="#ab3989"/><path d="m334.28 242.86-7.68-2.76c-1.85-.66-3.72-1.29-5.6-1.87q-4.17-1.3-8.42-2.36-4.755-1.2-9.57-2.05a145.834 145.834 0 0 0 -25.22-2.28c-12.38-.03-26.79.05-39.29.15a145.131 145.131 0 0 0 -17.2 1.16c-3.94.5-7.85 1.15-11.73 1.98a147.066 147.066 0 0 0 -16.57 4.52q-6.39 2.16-12.58 4.91l-8.3 3.69a32.01 32.01 0 0 0 -20.12 29.72v117.08a32 32 0 0 0 9.37 22.62l46.63 46.63 35.56 23.71a8 8 0 0 0 12.44-6.66 8 8 0 0 0 12.44 6.66l35.56-23.71 46.63-46.63a32 32 0 0 0 9.37-22.62v-120.52a32 32 0 0 0 -25.72-31.37zm-14.28 141.14-16 32-22.43-11.21a10.6 10.6 0 0 0 -13.42 3.17 10.394 10.394 0 0 0 1.15 13.34l10.7 10.7-21.66 21.66a7.985 7.985 0 0 0 -2.34 5.65 7.985 7.985 0 0 0 -2.34-5.65l-21.66-21.66 10.45-10.45a10.708 10.708 0 0 0 2.38-11.88 10.4 10.4 0 0 0 -14.13-5.02l-22.7 11.35-16-32v-48h128z" fill="#feb784"/><path d="m311.58 235.87a56.558 56.558 0 0 1 -1.61 10.09l-1.37 5.36a44.106 44.106 0 0 1 -85.2 0l-1.37-5.36a56.341 56.341 0 0 1 -1.73-13.11 145.131 145.131 0 0 1 17.2-1.16c12.5-.1 26.91-.18 39.29-.15a145.834 145.834 0 0 1 25.22 2.28q4.815.855 9.57 2.05z" fill="#f7b488"/><path d="m208 216.5h16v-32.854h-16a16.217 16.217 0 0 0 -16 16.427 16.218 16.218 0 0 0 16 16.427z" fill="#feb784"/><path d="m305.143 183.646h-14.857v32.854h14.857c8.205 0 14.857-7.355 14.857-16.427 0-9.073-6.652-16.427-14.857-16.427z" fill="#feb784"/><path d="m256 264a43.773 43.773 0 0 1 -42.6-32.676l-1.365-5.364a56.555 56.555 0 0 1 -1.748-13.95v-26.6c0-24.8 20.467-44.909 45.714-44.909 25.247 0 45.714 20.106 45.714 44.909v26.6a56.555 56.555 0 0 1 -1.748 13.95l-1.365 5.364a43.773 43.773 0 0 1 -42.602 32.676z" fill="#fec093"/><path d="m266.971 145.553s10.972 22.369 40.823 51.947a144.768 144.768 0 0 0 3.063-29.578c0-30.885-24.557-55.922-54.857-55.922-30.3 0-54.857 25.037-54.857 55.922 0 5.768-1.476 20.411 6.857 32.078 16.9-6.257 35.162-23.788 58.971-54.447z" fill="#6e3c26"/><path d="m320 238.23v97.77a31.974 31.974 0 0 1 -32 32h-64a32 32 0 0 1 -32-32v-96.65a147.066 147.066 0 0 1 16.57-4.52l9.15 45.79a39.039 39.039 0 0 0 76.56 0l7.73-46.8a144.781 144.781 0 0 1 17.99 4.41z" fill="#c378cb"/></g></svg>