<svg height="512" viewBox="0 0 512 512" width="512" xmlns="http://www.w3.org/2000/svg"><g id="Flat"><path d="m199.38 272 .62 104h112l-.62-104z" fill="#f7b488"/><path d="m432 288.17v1.93a40.358 40.358 0 0 1 -1.69 11.55l-29.51 98.35-16.8 56 26.53 13.27a9.885 9.885 0 0 1 -4.42 18.73h-62.11l17.6-88 14.4-72-41.95 71.91a48.552 48.552 0 0 1 -76.27 9.87l-1.78-1.78-1.78 1.78a48.552 48.552 0 0 1 -76.27-9.87l-41.95-71.91 14.4 72 17.6 88h-62.11a9.885 9.885 0 0 1 -4.42-18.73l26.53-13.27-16.8-56-29.51-98.35a40.358 40.358 0 0 1 -1.69-11.55v-1.93a40.166 40.166 0 0 1 67.57-29.37l108.43 101.2 108.43-101.2a40.166 40.166 0 0 1 67.57 29.37z" fill="#f7b488"/><path d="m432 288.17v1.93a40.358 40.358 0 0 1 -1.69 11.55l-29.51 98.35h-39.2l14.4-72-41.95 71.91a48.552 48.552 0 0 1 -76.27 9.87l-1.78-1.78-1.78 1.78a48.552 48.552 0 0 1 -76.27-9.87l-41.95-71.91 14.4 72h-39.2l-29.51-98.35a40.358 40.358 0 0 1 -1.69-11.55v-1.93a40.166 40.166 0 0 1 67.57-29.37l108.43 101.2 108.43-101.2a40.166 40.166 0 0 1 67.57 29.37z" fill="#ab3989"/><path d="m390.321 266.242-23.321-79.989a35.366 35.366 0 0 0 -34.171-26.253h-52.829v-40h-48v40h-52.829a35.367 35.367 0 0 0 -34.171 26.253l-23.8 89.269a35.354 35.354 0 0 0 -1.2 9.112 35.366 35.366 0 0 0 35.366 35.366h68.634v-32l-64-8 16-64 32 24h96l32-24 16 64-64 8v32h62a42 42 0 0 0 40.323-53.758z" fill="#feb784"/><path d="m328 160h16l-8-16v-72a32 32 0 0 0 -32-32h-32v24l24 8v56a32 32 0 0 0 32 32z" fill="#61311c"/><path d="m214 112h14v-27.667h-14a13.918 13.918 0 0 0 -14 13.834 13.917 13.917 0 0 0 14 13.833z" fill="#feb784"/><path d="m299 84.333h-13v27.667h13c7.18 0 13-6.193 13-13.833 0-7.64-5.82-13.834-13-13.834z" fill="#feb784"/><path d="m256 152c-17.631 0-33-11.345-37.276-27.517l-1.194-4.516a45.937 45.937 0 0 1 -1.53-11.748v-22.4c0-20.887 17.909-37.819 40-37.819 22.091 0 40 16.932 40 37.818v22.4a45.937 45.937 0 0 1 -1.53 11.748l-1.194 4.516c-4.276 16.173-19.645 27.518-37.276 27.518z" fill="#fec093"/><path d="m265.6 52.255s9.6 18.837 35.72 43.745a117.512 117.512 0 0 0 2.68-24.908c0-26.008-21.49-47.092-48-47.092-26.51 0-48 21.084-48 47.092a117.542 117.542 0 0 0 .905 14.494c14.789-5.269 35.862-7.513 56.695-33.331z" fill="#6e3c26"/><path d="m311.38 272a40.98 40.98 0 0 0 0-64l-8-48h-16l-3.293 16.466a29.276 29.276 0 0 1 -28.707 23.534 29.276 29.276 0 0 1 -28.707-23.534l-3.293-16.466h-16l-8 48a40.98 40.98 0 0 0 0 64z" fill="#c378cb"/><path d="m240 248-8 16-8 24v32h32v-72z" fill="#feb784"/><path d="m280 264-8-16h-16v72h32v-32z" fill="#feb784"/><path d="m248 248h16v72h-16z" fill="#f5a76e"/></g></svg>