<svg height="512" viewBox="0 0 512 512" width="512" xmlns="http://www.w3.org/2000/svg"><g id="Flat"><path d="m440 360v24h-48a40 40 0 0 0 -40 40v16a28.944 28.944 0 0 1 25.889-16h46.111a40 40 0 0 0 40-40v-24z" fill="#6e3c26"/><path d="m304 92a11.984 11.984 0 0 1 -12 12h-20l-32 16 2.82 48 5.18 88v24a32 32 0 0 1 -32 32h-104v72h-13.75a86.715 86.715 0 0 1 -48.09-14.56 58.745 58.745 0 0 1 1.45-98.7 149.69 149.69 0 0 1 79.3-22.74h69.09l3.81-80 3.65-76.57a11.994 11.994 0 0 1 11.98-11.43h72.56a12 12 0 0 1 12 12z" fill="#f7b488"/><path d="m248 256v24a32 32 0 0 1 -32 32h-104v72h-13.75a86.715 86.715 0 0 1 -48.09-14.56 58.745 58.745 0 0 1 1.45-98.7 149.69 149.69 0 0 1 79.3-22.74h69.09l3.81-80h39.01z" fill="#b53f92"/><path d="m488 331.5c0 23.02-9.88 44.5-48 44.5-24 0-31.18-10.77-56-16h-32a35.1 35.1 0 0 1 -33.3 24h-48.02q-10.89 0-21.72-1.08l-.96-.1c-13.67-1.43-26.75-4.88-40.12-7.89-31.85-7.17-63.94 9.07-95.88 9.07v-72h136l10.64-17.74a45.866 45.866 0 0 1 75.13-5.05l18.23 22.79h40v-24a8 8 0 0 1 8-8h24l8-8 16 16 9.71 2.77c11.4 2.32 24.2 14.47 28.79 29.4a33.611 33.611 0 0 1 1.5 11.33z" fill="#f7b488"/><path d="m328 283.21v.3c-44.18 41.23-48.06 82.81-48 100.49h-9.32q-10.89 0-21.72-1.08l-.96-.1v-70.82l10.64-17.74a45.856 45.856 0 0 1 69.36-11.05z" fill="#c378cb"/><path d="m297.642 364.926-41.642-124.926v-88l-8-48v-32h40v88l8 72 53.055 106.11a27.891 27.891 0 0 1 2.945 12.475v5.52a27.9 27.9 0 0 1 -27.895 27.895 27.9 27.9 0 0 1 -26.463-19.074z" fill="#fec093"/><rect fill="#a33484" height="16" rx="8" width="32" x="80" y="304"/><path d="m440 334.167 46.5-14.167c4.3 16.473 3.456 44-22.874 57.888-39.626 20.898-79.626-17.888-79.626-17.888l32.506-16.982 7.522 7.878a11.354 11.354 0 0 0 14.109 1.863 11.356 11.356 0 0 0 3.611-15.916z" fill="#6e3c26"/></g></svg>