<svg height="512" viewBox="0 0 512 512" width="512" xmlns="http://www.w3.org/2000/svg"><g id="Flat"><path d="m352 488h108a28 28 0 0 0 28-28 28 28 0 0 0 -28-28h-12l-8 16h-39.208a49.759 49.759 0 0 0 -48.792 40z" fill="#61311c"/><path d="m464 429.46v.56c0 18.85-12.75 46.23-37 47.98l-59 2-40 8h-64l-24-7.2-56-16.8-64 24h-18.39a61.606 61.606 0 0 1 -61.61-61.61q0-17.16 1.61-34.24 1.605-17.055 4.82-33.93l25.57-134.22-2.6-36.41a200.059 200.059 0 0 1 1.03-39.07l1.57-12.52 8-64v-30.11a9.893 9.893 0 0 1 9.89-9.89h22.11l32-8h14.11a9.885 9.885 0 0 1 4.42 18.73l-9.73 4.87a10.546 10.546 0 0 0 -1.51.93l-31.29 23.47v328l32-2.91 56-5.09 32 8 5.99-8.99a33.706 33.706 0 0 1 28.05-15.01h.5a34.861 34.861 0 0 1 31.14 19.05c2.03 3.99 4.22 8.31 6.41 12.62 7.97 15.69 15.91 31.33 15.91 31.33l41.56-9.86v-26.25a7.493 7.493 0 0 1 7.55-7.43h17.73l8.72-11.46 20.92 11.46h4.94c13.71 0 22 5.31 27 11.73 6.71 8.6 7.52 19.18 7.57 21.62.01.21.01.43.01.65z" fill="#f7b488"/><path d="m152 397.09v78.91l-32 12h-18.39a61.606 61.606 0 0 1 -61.61-61.61q0-17.16 1.61-34.24 1.605-17.055 4.82-33.93l25.57-134.22-2.6-36.41a200.059 200.059 0 0 1 1.03-39.07l1.57-12.52h48v264z" fill="#b53f92"/><path d="m312.09 407.67c-12.72 13.27-36.98 42.76-43.54 80.33h-4.55l-24-7.2v-80.8l5.99-8.99a33.706 33.706 0 0 1 28.05-15.01h.5a34.861 34.861 0 0 1 31.14 19.05c2.03 3.99 4.22 8.31 6.41 12.62z" fill="#c378cb"/><rect fill="#a33484" height="32" rx="8" width="16" x="112" y="400"/><path d="m464 429.46v18.54c0 21.83-24.75 40-48 40-15.94 0-47.93-7.98-48-8l32.8-28.21 7.49 7.37a12.265 12.265 0 0 0 11.59 3.12 11.881 11.881 0 0 0 7.79-17.01l-3.92-7.27s13.69-17.56 21.5-23.75a72.613 72.613 0 0 1 11.17-7.06c6.71 8.6 7.52 19.18 7.57 21.62.01.21.01.43.01.65z" fill="#6e3c26"/><path d="m24 488h284a20 20 0 0 0 20-20 20 20 0 0 0 -20-20h-116l-88 8-40-4-40 20z" fill="#fec093"/></g></svg>