<svg height="512" viewBox="0 0 512 512" width="512" xmlns="http://www.w3.org/2000/svg"><g id="Flat"><path d="m112 216.248v40l8 16-20.707-4.142a24 24 0 0 1 -19.293-23.534v-28.324l-24-8v-16h32a24 24 0 0 1 24 24z" fill="#61311c"/><path d="m487.98 248.78a8.176 8.176 0 0 1 -8.25 7.47h-7.73l-32 8-31.52 17.19-56.48 30.81-80 16h-96l-32-16-9.59 3.19a24.566 24.566 0 0 1 -31.87-18.49l-4.07-20.33-2.47-12.37-20.54-16-11.28 8.82a5.049 5.049 0 0 1 -7.13.16l-8.69-8.18-9.56 1.6-4.97-15.27-2.42-2.28a23.4 23.4 0 0 1 -7.39-16.16 22.863 22.863 0 0 1 1.48-9.06 22.215 22.215 0 0 1 4.35-7.07 23.3 23.3 0 0 1 31.91-2.49l29.7 25.93 12.54 8 .14-.15a26.834 26.834 0 0 1 39.91 2.21l14.95 18.69 9 11.25 32 16 19.46-9.73a59.4 59.4 0 0 1 59.5 3.7l9.04 6.03 48-8 32-16 56-16 16-16 40 16a8 8 0 0 1 7.98 8.53z" fill="#f7b488"/><path d="m174 267.25-30 45-9.59 3.19a24.566 24.566 0 0 1 -31.87-18.49l-4.07-20.33 2.74 1.45c7.65 2.52 17.4 4.27 25.79 1.18 8.55-3.15 20.95-14.6 32-26.25l9 11.25z" fill="#c378cb"/><path d="m408.48 281.44-56.48 30.81-80 16h-72v-48l19.46-9.73a59.4 59.4 0 0 1 59.5 3.7l9.04 6.03 48-8 32-16 24.5-7 15.5 31z" fill="#b53f92"/><path d="m71.42 218.692-.274-7.065a8.261 8.261 0 0 0 -4.239-6.876 8 8 0 0 0 -11.664 4.749l-.532 1.895-29.211-3.517a22.441 22.441 0 0 1 4.641-7.394l7.131-7.577q.421-.447.857-.873c12.193-11.934 32.341-10.286 43.431 3.055l.558.73c7.424 9.717 8.874 16.306 9.344 28.429z" fill="#6e3c26"/><path d="m272 240.248-16 8-64-24h-72a16 16 0 0 0 -16 16 16 16 0 0 0 16 16h64l72 16h48v-32z" fill="#fec093"/></g></svg>