<svg height="512" viewBox="0 0 512 512" width="512" xmlns="http://www.w3.org/2000/svg"><g id="Flat"><path d="m470.39 476.11a11.82 11.82 0 0 1 -11.76 11.89h-57.41a11.827 11.827 0 0 1 -11.76-11.89v-151.73l-71.57 24.12a125.07 125.07 0 0 1 -39.99 6.56h-19.94v-51.13l30.35-20.45 99.56-7.74c1.23-.1 2.45-.14 3.66-.14a47.608 47.608 0 0 1 42.61 26.62 48.69 48.69 0 0 1 4.89 25.24l-5.99 78.73-3.11 40.91 10.11 10.22 22.31 7.52a11.753 11.753 0 0 1 5.82 4.33 11.929 11.929 0 0 1 2.22 6.94z" fill="#f7b488"/><path d="m439.03 327.46-5.99 78.73h-43.58v-81.81l-71.57 24.12a125.07 125.07 0 0 1 -39.99 6.56h-19.94v-51.13l30.35-20.45 99.56-7.74c1.23-.1 2.45-.14 3.66-.14a47.608 47.608 0 0 1 42.61 26.62 48.69 48.69 0 0 1 4.89 25.24z" fill="#b03b8d"/><path d="m146.687 150.543h-20.232l10.116-20.452v-61.356a30.514 30.514 0 0 1 30.347-30.678h40.463v20.452l-30.347 10.226v51.13a30.514 30.514 0 0 1 -30.347 30.678z" fill="#61311c"/><path d="m303.05 189.72-.87-3.54a28.391 28.391 0 0 0 -18.44-20.13l-15.66-5.28-.08-.08-20.16-20.37v-30.68h10.12a10.175 10.175 0 0 0 10.12-10.23v-15.33l10.95-6.09-10.12-18.69v-4.41a31.259 31.259 0 0 0 -8.8-21.84 30.166 30.166 0 0 0 -10-6.81 29.234 29.234 0 0 0 -10.67-2.23c-16.83-.33-30.97 8.65-32.06 24.27v61.36l-7.47 30.19a90.7 90.7 0 0 0 1.91 50.09 89.622 89.622 0 0 0 8.55 18.53q2.145 3.54 4.63 6.89l8.5 14.01 14.23 23.45-10.12 30.68-7.09 5.38a63.871 63.871 0 0 0 -23.25 66.2l-44.26 71.58-20.9-46.62-45.25 15.68 18.27 57.21a50.171 50.171 0 0 0 47.69 35.09 49.613 49.613 0 0 0 21.8-5.04 50.121 50.121 0 0 0 17.46-14.14l86.81-110.65a51.555 51.555 0 0 0 9.42-29.72v-106.33a28.519 28.519 0 0 0 15.59-25.47 28.887 28.887 0 0 0 -.85-6.93z" fill="#fec093"/><path d="m111.14 333.23 5.12-7.64a22.135 22.135 0 0 0 -13.02-33.78l-15.24-3.81-9.39-19.17-10.53-10.46a12.658 12.658 0 0 0 -20.98 12.83l39.76 124.5 45.25-15.68z" fill="#f7b488"/><path d="m288.31 283.48v44.97a51.555 51.555 0 0 1 -9.42 29.72l-86.81 110.65a50.121 50.121 0 0 1 -17.46 14.14 49.613 49.613 0 0 1 -21.8 5.04 50.171 50.171 0 0 1 -47.69-35.09l-18.27-57.21 45.25-15.68 20.9 46.62 44.26-71.58a63.871 63.871 0 0 1 23.25-66.2l7.09-5.38z" fill="#bc4598"/><path d="m219.137 80.447-6.506-6.69a11.045 11.045 0 0 1 -2.759-10.35 10.473 10.473 0 0 1 15.028-6.955l2.29 1.208 22.92-31.418a29.182 29.182 0 0 0 -11.243-2.242h-13.657q-.807 0-1.606.033c-22.378.924-38.926 21.895-36.15 44.744l.2 1.2c2.61 16.011 8.566 28.178 19.731 39.657z" fill="#6e3c26"/><path d="m303.9 196.65a28.519 28.519 0 0 1 -15.59 25.47v7.23h-64.81l-8.5-14.01q-2.49-3.345-4.63-6.89c43.68-6.94 56.49-28.44 57.63-47.76l.08.08 15.66 5.28a28.391 28.391 0 0 1 18.44 20.13l.87 3.54a28.887 28.887 0 0 1 .85 6.93z" fill="#c378cb"/><path d="m206.571 140.317a20.141 20.141 0 0 0 -15.361 7.142l-54.639 64.441-56.525 58.865-25.51 16.616-9.006 16.552 10.116 30.677 46.316-29.461 64.956-62.572 50.582-61.356 10.116-40.9z" fill="#fec093"/><rect fill="#f5a76e" height="16" rx="8" transform="matrix(.636 -.772 .772 .636 -69.06 231.639)" width="20.26" x="200.923" y="181.037"/></g></svg>